<?xml version="1.0"?>
<svg xmlns="http://www.w3.org/2000/svg" xmlns:xlink="http://www.w3.org/1999/xlink" xmlns:svgjs="http://svgjs.com/svgjs" version="1.1" width="512" height="512" x="0" y="0" viewBox="0 0 512 512" style="enable-background:new 0 0 512 512" xml:space="preserve" class=""><g>
<g xmlns="http://www.w3.org/2000/svg">
	<g>
		<g>
			<circle cx="172" cy="174" r="20" fill="#b81a1a" data-original="#000000" style="" class=""/>
			<circle cx="260" cy="123" r="20" fill="#b81a1a" data-original="#000000" style="" class=""/>
			<path d="M508.69,221.419c-1.425-4.087-2.655-7.617-26.934-33.582c-13.464-14.4-31.883-33.353-51.864-53.369     c-46.778-46.86-92.33-89.933-121.851-115.223C293.554,6.834,275.071,0,256,0s-37.554,6.834-52.04,19.245     c-9.714,8.32-21.173,18.571-33.96,30.367V20c0-11.046-8.954-20-20-20H70C58.954,0,50,8.954,49.999,20v147.103     C6.635,211.884,4.873,216.937,3.31,221.417c-6.169,17.698-3.552,37.135,7.003,51.99c9.356,13.168,23.638,21.198,39.687,22.469     V432c0,44.112,35.888,80,80,80h252c44.112,0,80-35.888,80-80c0-11.046-8.954-20-20-20c-11.046,0-20,8.954-20,20     c0,22.056-17.944,40-40,40h-56V354c0-11.046-8.954-20-20-20H206c-11.046,0-20,8.954-20,20v118h-56c-22.056,0-40-17.944-40-40     V286.961c6.588-3.958,13.093-9.166,19.485-15.65c4.742-4.812,11.293-7.477,18.032-7.316c6.325,0.152,12.528,2.872,17.018,7.462     C160.468,287.742,177.268,296,194.467,296h0.863c17.382,0,34.384-8.307,50.535-24.69c4.541-4.608,10.83-7.272,17.255-7.311     c0.048,0,0.095,0,0.144,0c6.582,0,13.008,2.714,17.65,7.458C296.847,287.742,313.647,296,330.846,296h0.863     c17.382,0,34.384-8.307,50.535-24.69c7.754-7.867,7.664-20.529-0.202-28.284c-7.865-7.753-20.528-7.663-28.284,0.203     C345.64,251.465,337.81,256,331.71,256h-0.863c-5.865,0-13.444-4.445-21.34-12.517c-12.128-12.396-28.963-19.484-46.246-19.484     c-0.126,0-0.254,0-0.379,0.001c-16.973,0.102-33.558,7.11-45.503,19.229C209.261,251.465,201.431,256,195.331,256h-0.863     c-5.865,0-13.444-4.445-21.34-12.516c-11.89-12.153-27.745-19.07-44.645-19.478C110.797,223.59,93.465,230.585,81,243.23     c-7.476,7.584-14.613,12.061-20.342,12.825h-6.136c-6.174,0-9.716-3.162-11.6-5.814c-2.733-3.847-3.576-8.918-2.371-13.862     c3.547-4.594,15.735-18.416,43.777-47.208C87.965,185.437,90,180.43,90,175.217V40h40.001v55.915     c0,8.013,4.781,15.251,12.15,18.396c7.371,3.144,15.904,1.588,21.688-3.957c26.163-25.074,49.035-46.075,66.143-60.731     c15.076-12.914,36.962-12.914,52.036,0c62.63,53.649,174.956,167.45,189.421,186.711c1.221,4.959,0.381,10.048-2.36,13.907     c-1.884,2.652-5.426,5.814-11.6,5.814H442c-11.046,0-20,8.954-20,20V332c0,11.046,8.954,20,20,20c11.046,0,20-8.954,20-20     v-36.124c16.049-1.271,30.332-9.301,39.687-22.469C512.241,258.552,514.858,239.116,508.69,221.419z M226,374h60v98h-60V374z" fill="#b81a1a" data-original="#000000" style="" class=""/>
			<circle cx="327" cy="163" r="20" fill="#b81a1a" data-original="#000000" style="" class=""/>
		</g>
	</g>
</g>
<g xmlns="http://www.w3.org/2000/svg">
</g>
<g xmlns="http://www.w3.org/2000/svg">
</g>
<g xmlns="http://www.w3.org/2000/svg">
</g>
<g xmlns="http://www.w3.org/2000/svg">
</g>
<g xmlns="http://www.w3.org/2000/svg">
</g>
<g xmlns="http://www.w3.org/2000/svg">
</g>
<g xmlns="http://www.w3.org/2000/svg">
</g>
<g xmlns="http://www.w3.org/2000/svg">
</g>
<g xmlns="http://www.w3.org/2000/svg">
</g>
<g xmlns="http://www.w3.org/2000/svg">
</g>
<g xmlns="http://www.w3.org/2000/svg">
</g>
<g xmlns="http://www.w3.org/2000/svg">
</g>
<g xmlns="http://www.w3.org/2000/svg">
</g>
<g xmlns="http://www.w3.org/2000/svg">
</g>
<g xmlns="http://www.w3.org/2000/svg">
</g>
</g></svg>
